<?xml version="1.0" encoding="UTF-8"?>
<!DOCTYPE svg PUBLIC "-//W3C//DTD SVG 1.1//EN" "http://www.w3.org/Graphics/SVG/1.1/DTD/svg11.dtd">
<svg xmlns="http://www.w3.org/2000/svg" version="1.1" width="512px" height="512px" style="shape-rendering:geometricPrecision; text-rendering:geometricPrecision; image-rendering:optimizeQuality; fill-rule:evenodd; clip-rule:evenodd" xmlns:xlink="http://www.w3.org/1999/xlink">
<g><path style="opacity:0.996" fill="#35a771" d="M 279.5,363.5 C 279.333,345.83 279.5,328.164 280,310.5C 301.043,278.914 322.209,247.414 343.5,216C 327.5,215.333 311.5,215.333 295.5,216C 282.278,236.955 268.944,257.788 255.5,278.5C 242.056,257.788 228.722,236.955 215.5,216C 199.5,215.333 183.5,215.333 167.5,216C 188.791,247.414 209.957,278.914 231,310.5C 231.5,328.164 231.667,345.83 231.5,363.5C 219.912,359.704 209.912,353.371 201.5,344.5C 163.643,359.243 131.143,351.577 104,321.5C 89.1245,300.801 83.7911,277.801 88,252.5C 70.2202,234.847 66.5535,214.514 77,191.5C 87.3569,174.569 102.524,166.403 122.5,167C 112.676,154.87 109.176,141.037 112,125.5C 120.309,98.2167 138.809,85.3834 167.5,87C 177.877,65.6259 192.877,48.2926 212.5,35C 257.324,13.5809 295.491,22.0809 327,60.5C 334.778,71.0501 341.278,82.3835 346.5,94.5C 383.709,94.2059 401.209,112.539 399,149.5C 397.624,156.084 394.791,161.918 390.5,167C 416.117,167.952 432.284,180.786 439,205.5C 442.217,224.184 436.884,239.851 423,252.5C 428.717,289.399 416.55,318.565 386.5,340C 361.538,353.575 335.871,355.075 309.5,344.5C 301.088,353.371 291.088,359.704 279.5,363.5 Z"/></g>
<g><path style="opacity:0.999" fill="#94573a" d="M 279.5,363.5 C 279.08,394.858 279.58,426.191 281,457.5C 283.611,471.105 291.111,480.938 303.5,487C 271.5,487.667 239.5,487.667 207.5,487C 219.857,480.964 227.357,471.131 230,457.5C 231.42,426.191 231.92,394.858 231.5,363.5C 231.667,345.83 231.5,328.164 231,310.5C 209.957,278.914 188.791,247.414 167.5,216C 183.5,215.333 199.5,215.333 215.5,216C 228.722,236.955 242.056,257.788 255.5,278.5C 268.944,257.788 282.278,236.955 295.5,216C 311.5,215.333 327.5,215.333 343.5,216C 322.209,247.414 301.043,278.914 280,310.5C 279.5,328.164 279.333,345.83 279.5,363.5 Z"/></g>
</svg>
