<?xml version="1.0" encoding="UTF-8"?>
<!DOCTYPE svg PUBLIC "-//W3C//DTD SVG 1.1//EN" "http://www.w3.org/Graphics/SVG/1.1/DTD/svg11.dtd">
<svg xmlns="http://www.w3.org/2000/svg" version="1.1" width="624px" height="468px" style="shape-rendering:geometricPrecision; text-rendering:geometricPrecision; image-rendering:optimizeQuality; fill-rule:evenodd; clip-rule:evenodd" xmlns:xlink="http://www.w3.org/1999/xlink">
<g><path style="opacity:0.376" fill="#000000" d="M 222.5,93.5 C 224.97,95.4448 227.637,97.2782 230.5,99C 233.5,100 236.5,101 239.5,102C 240.167,103.333 241.167,104.333 242.5,105C 251.789,104.975 260.122,107.809 267.5,113.5C 272.39,112.885 277.057,113.885 281.5,116.5C 282.082,122.903 283.415,129.07 285.5,135C 284.852,136.44 284.519,137.94 284.5,139.5C 285.552,139.351 286.552,139.517 287.5,140C 289.625,142.711 292.292,144.711 295.5,146C 299.735,147.293 303.901,148.793 308,150.5C 311.14,149.745 314.307,149.578 317.5,150C 318.878,148.287 320.545,146.953 322.5,146C 328.084,144.549 333.584,143.049 339,141.5C 344.991,141.66 350.491,143.327 355.5,146.5C 358.438,145.425 361.438,145.259 364.5,146C 367.531,148.064 369.864,150.731 371.5,154C 376.453,155.16 381.453,155.993 386.5,156.5C 385.657,159.862 386.157,163.195 388,166.5C 390.803,168.628 393.636,170.794 396.5,173C 400.376,172.588 404.209,172.421 408,172.5C 413.629,174.856 419.462,176.522 425.5,177.5C 427.029,177.471 428.196,176.804 429,175.5C 430.684,177.066 432.684,178.066 435,178.5C 438.721,177.057 442.221,175.223 445.5,173C 453.183,172.459 460.516,170.626 467.5,167.5C 472.941,169.027 476.441,167.027 478,161.5C 479.833,159.667 481.667,157.833 483.5,156C 489.174,153.658 494.341,150.492 499,146.5C 503.175,146.853 507.342,148.02 511.5,150C 513.842,152.376 516.175,154.709 518.5,157C 521.167,157.667 523.833,157.667 526.5,157C 532.062,153.399 537.229,153.899 542,158.5C 542.667,159.833 542.667,161.167 542,162.5C 536.952,173.919 531.952,185.252 527,196.5C 527.438,199.199 527.272,201.865 526.5,204.5C 522.215,206.39 521.381,209.39 524,213.5C 525.351,215.019 526.851,216.352 528.5,217.5C 529.382,216.24 530.382,215.074 531.5,214C 535.863,213.71 540.196,213.21 544.5,212.5C 548.388,213.36 551.555,215.36 554,218.5C 556.167,215.667 558.333,212.833 560.5,210C 565.516,208.159 570.516,208.159 575.5,210C 577.755,214.087 581.088,216.92 585.5,218.5C 588.687,223.354 592.52,227.688 597,231.5C 599.666,235.823 600.666,240.49 600,245.5C 593.849,248.286 587.849,247.952 582,244.5C 578.486,245.795 574.986,245.795 571.5,244.5C 567.705,246.231 564.038,248.231 560.5,250.5C 559.15,249.05 557.484,248.383 555.5,248.5C 555.167,250.5 554.833,252.5 554.5,254.5C 547.033,251.824 541.2,253.824 537,260.5C 535.096,263.932 533.929,267.432 533.5,271C 529.359,272.572 525.692,274.905 522.5,278C 516.465,279.023 510.465,279.356 504.5,279C 502.437,282.904 499.771,286.404 496.5,289.5C 493.321,290.589 490.655,292.423 488.5,295C 481.571,295.151 474.905,293.818 468.5,291C 467.833,290 467.167,289 466.5,288C 463.776,287.73 461.109,287.23 458.5,286.5C 457.5,287 456.5,287.5 455.5,288C 452.345,292.977 450.011,298.31 448.5,304C 449.196,305.893 450.03,307.726 451,309.5C 453.374,311.539 455.374,313.872 457,316.5C 457.667,318.167 457.667,319.833 457,321.5C 452.05,325.396 446.55,328.562 440.5,331C 436.703,335.448 433.036,339.948 429.5,344.5C 424.004,346.718 418.671,349.218 413.5,352C 408.977,352.32 404.477,352.82 400,353.5C 374.714,351.262 352.047,357.929 332,373.5C 329.519,371.686 326.685,371.02 323.5,371.5C 323.5,369.833 323.5,368.167 323.5,366.5C 318.907,367.185 314.407,368.185 310,369.5C 299.965,363.61 289.131,359.776 277.5,358C 275.833,355.667 274.167,353.333 272.5,351C 262.912,350.182 253.246,348.682 243.5,346.5C 239.89,347.703 236.223,348.703 232.5,349.5C 213.976,345.683 195.309,344.349 176.5,345.5C 176.66,343.801 176.494,342.134 176,340.5C 172.962,337.797 170.295,334.797 168,331.5C 165.888,326.272 164.054,320.939 162.5,315.5C 158.906,314.125 157.572,311.458 158.5,307.5C 154.658,307.761 150.991,307.094 147.5,305.5C 144.436,303.087 141.436,300.587 138.5,298C 134.174,298.011 131.174,296.011 129.5,292C 127.913,291.138 126.246,290.471 124.5,290C 113.207,288.756 101.873,287.756 90.5,287C 87.8232,286.308 84.9899,285.141 82,283.5C 81.1268,283.735 80.2935,284.069 79.5,284.5C 77.8196,281.139 76.153,277.806 74.5,274.5C 75.4276,269.318 77.4276,264.651 80.5,260.5C 80.1252,258.541 79.4585,256.707 78.5,255C 80.5821,251.775 81.5821,248.442 81.5,245C 80.2135,242.978 79.2135,240.811 78.5,238.5C 75.9826,237.136 74.1493,235.136 73,232.5C 71.729,228.021 70.0623,223.688 68,219.5C 65.6667,218.5 64,216.833 63,214.5C 58.6745,215.885 56.0078,214.218 55,209.5C 52.4149,210.258 49.5816,210.758 46.5,211C 44.4241,208.416 41.7574,206.749 38.5,206C 37.8333,204.333 37.1667,202.667 36.5,201C 32.8333,198.667 29.1667,196.333 25.5,194C 26.3567,193.311 27.0233,192.478 27.5,191.5C 24.9537,190.454 23.2871,188.621 22.5,186C 22.7591,184.739 23.4258,183.739 24.5,183C 23.5939,181.301 23.2606,179.467 23.5,177.5C 28.3595,177.471 30.6929,174.971 30.5,170C 33.2241,169.73 35.8908,169.23 38.5,168.5C 39.5,169.167 40.5,169.833 41.5,170.5C 42.4786,167.047 43.9786,166.714 46,169.5C 47.6461,168.221 48.8128,166.555 49.5,164.5C 50.4776,164.977 51.3109,165.643 52,166.5C 53.3948,164.888 54.8948,163.388 56.5,162C 55.1092,157.817 56.7758,155.817 61.5,156C 65.2436,151.778 69.9103,148.945 75.5,147.5C 78.8215,143.41 83.1549,141.244 88.5,141C 90.6227,138.755 92.9561,136.755 95.5,135C 97.8107,135.155 100.144,135.155 102.5,135C 103.313,133.197 104.48,131.697 106,130.5C 107.675,132.168 109.342,133.835 111,135.5C 112.508,133.162 114.675,132.162 117.5,132.5C 117.286,134.144 117.62,135.644 118.5,137C 125.792,138.116 133.126,138.616 140.5,138.5C 140.998,141.487 141.498,144.487 142,147.5C 143.667,149.833 145.333,152.167 147,154.5C 149.936,152.925 152.436,153.425 154.5,156C 159.44,158.084 163.94,157.584 168,154.5C 169.533,155.695 171.033,155.695 172.5,154.5C 175.506,156.941 178.673,158.275 182,158.5C 184.401,157.398 186.901,157.231 189.5,158C 193.37,163.75 196.37,163.25 198.5,156.5C 204.754,156.917 208.921,153.917 211,147.5C 212.268,143.231 210.934,140.231 207,138.5C 206.423,134.382 204.923,130.715 202.5,127.5C 204.604,122.739 206.104,118.073 207,113.5C 208.011,112.663 209.178,112.33 210.5,112.5C 210.372,110.345 210.872,108.345 212,106.5C 214.462,105.35 216.796,104.017 219,102.5C 220.273,99.5107 221.439,96.5107 222.5,93.5 Z M 222.5,95.5 C 226.916,99.062 231.916,101.562 237.5,103C 238.5,104 239.5,105 240.5,106C 244.167,106.333 247.833,106.667 251.5,107C 256.167,109.333 260.833,111.667 265.5,114C 271.463,113.878 276.796,115.544 281.5,119C 280.89,123.39 280.89,127.723 281.5,132C 282.867,134.654 283.867,137.487 284.5,140.5C 286.23,141.026 287.564,142.026 288.5,143.5C 285.567,147.704 282.901,152.038 280.5,156.5C 280.608,157.442 280.941,158.275 281.5,159C 285.112,160.139 288.446,161.806 291.5,164C 290.062,164.219 288.729,164.719 287.5,165.5C 286.872,167.258 285.872,168.758 284.5,170C 281.756,170.803 279.089,171.803 276.5,173C 273.446,176.31 270.779,179.81 268.5,183.5C 264.722,180.526 260.555,178.193 256,176.5C 254.699,177.098 253.865,178.098 253.5,179.5C 252.311,180.429 250.978,180.762 249.5,180.5C 249.48,182.143 250.147,183.476 251.5,184.5C 248.47,187.538 247.804,191.038 249.5,195C 247.139,195.197 245.472,196.364 244.5,198.5C 242.49,196.829 240.157,196.162 237.5,196.5C 237.844,201.255 235.844,202.588 231.5,200.5C 230.522,200.977 229.689,201.643 229,202.5C 227.76,199.723 226.594,196.89 225.5,194C 226.905,192.023 227.905,189.857 228.5,187.5C 227.698,184.551 227.364,181.551 227.5,178.5C 223.014,177.862 219.347,179.196 216.5,182.5C 213.322,180.414 209.988,180.08 206.5,181.5C 204.032,180.197 201.699,178.697 199.5,177C 193.898,177.524 189.898,175.357 187.5,170.5C 187.719,169.062 188.219,167.729 189,166.5C 192.38,164.446 195.88,162.612 199.5,161C 200.337,159.989 200.67,158.822 200.5,157.5C 206.584,157.966 210.418,154.966 212,148.5C 212.74,145.824 213.073,143.158 213,140.5C 211.333,139.167 209.667,137.833 208,136.5C 208.037,132.822 206.871,129.656 204.5,127C 205.668,123.152 206.835,119.319 208,115.5C 209.011,114.663 210.178,114.33 211.5,114.5C 211.289,108.592 214.123,105.258 220,104.5C 221.549,101.688 222.382,98.6883 222.5,95.5 Z M 105.5,132.5 C 107.463,133.96 109.296,135.627 111,137.5C 112.507,136.495 113.673,135.162 114.5,133.5C 115.765,135.346 117.098,137.18 118.5,139C 124.884,138.906 131.384,139.406 138,140.5C 138.945,140.905 139.612,141.572 140,142.5C 140.333,144.833 140.667,147.167 141,149.5C 142.62,151.241 144.12,153.075 145.5,155C 147.179,155.395 148.845,155.228 150.5,154.5C 153.224,157.143 156.558,158.143 160.5,157.5C 161.618,160.178 161.618,162.845 160.5,165.5C 161.221,168.564 162.555,171.231 164.5,173.5C 163.507,177.791 162.84,182.124 162.5,186.5C 158.73,188.208 154.73,189.541 150.5,190.5C 146.224,189.945 142.057,188.945 138,187.5C 131.792,189.047 127.459,192.714 125,198.5C 123.511,195.969 121.678,193.802 119.5,192C 116.692,191.08 114.525,191.913 113,194.5C 109.679,193.029 106.179,192.363 102.5,192.5C 102.649,191.448 102.483,190.448 102,189.5C 99.7241,187.465 97.8908,185.132 96.5,182.5C 92.8668,183.634 90.3668,185.967 89,189.5C 88.089,186.424 86.2557,184.091 83.5,182.5C 82.5371,179.717 81.3704,177.05 80,174.5C 76.7119,171.732 73.2119,169.065 69.5,166.5C 68.215,162.304 66.5483,158.304 64.5,154.5C 68.1081,151.892 72.1081,150.225 76.5,149.5C 79.756,145.369 84.0894,143.035 89.5,142.5C 91.6499,140.851 93.6499,139.018 95.5,137C 98.1667,136.667 100.833,136.333 103.5,136C 104.823,135.184 105.489,134.017 105.5,132.5 Z M 337.5,142.5 C 342.749,143.315 347.749,144.815 352.5,147C 355.856,147.215 359.189,147.215 362.5,147C 366.167,149.333 369.167,152.333 371.5,156C 375.863,156.369 380.196,156.869 384.5,157.5C 384.336,160.187 384.503,162.854 385,165.5C 400.088,176.499 398.254,181.665 379.5,181C 376.659,184.159 377.326,186.492 381.5,188C 379.272,192.911 375.605,194.411 370.5,192.5C 367.565,192.896 364.898,193.896 362.5,195.5C 359.661,193.58 356.661,191.913 353.5,190.5C 352.914,190.709 352.414,191.043 352,191.5C 351.506,189.866 351.34,188.199 351.5,186.5C 347.743,186.071 344.243,186.737 341,188.5C 340.306,192.877 337.64,195.211 333,195.5C 330.5,194.667 328,193.833 325.5,193C 324.167,191.667 324.167,190.333 325.5,189C 322.288,187.291 322.122,185.791 325,184.5C 325.006,177.637 326.172,170.803 328.5,164C 326.984,161.976 325.651,159.809 324.5,157.5C 326.363,154.15 325.697,150.983 322.5,148C 326.739,146.587 331.072,145.587 335.5,145C 336.381,144.292 337.047,143.458 337.5,142.5 Z M 288.5,145.5 C 291.983,146.752 295.649,147.586 299.5,148C 301.903,150.16 304.737,151.66 308,152.5C 310.516,151.227 313.016,151.227 315.5,152.5C 317.893,151.905 319.727,150.572 321,148.5C 323.816,151.256 324.649,154.423 323.5,158C 323.468,159.971 324.302,161.471 326,162.5C 326.132,167.622 325.299,172.622 323.5,177.5C 321.028,178.896 318.362,179.73 315.5,180C 314.62,181.356 314.286,182.856 314.5,184.5C 318.025,184.346 320.859,185.679 323,188.5C 323.827,192.541 323.66,196.541 322.5,200.5C 318.546,204.082 318.546,207.748 322.5,211.5C 323.736,212.246 325.07,212.579 326.5,212.5C 326.261,214.467 326.594,216.301 327.5,218C 324.5,219 321.5,220 318.5,221C 315.691,222.588 315.025,224.755 316.5,227.5C 314.392,228.944 312.059,229.61 309.5,229.5C 309.649,228.448 309.483,227.448 309,226.5C 304.73,221.641 300.23,216.975 295.5,212.5C 294.684,206.529 291.518,202.529 286,200.5C 284.17,196.714 282.837,192.714 282,188.5C 271.196,185.354 270.362,180.187 279.5,173C 284.438,172.728 287.604,170.228 289,165.5C 291.085,166.647 292.585,165.98 293.5,163.5C 289.5,161.167 285.5,158.833 281.5,156.5C 284.286,153.063 286.619,149.396 288.5,145.5 Z M 497.5,148.5 C 501.142,149.08 504.809,149.58 508.5,150C 511.483,153.313 514.817,156.313 518.5,159C 521.167,159.667 523.833,159.667 526.5,159C 531.947,154.417 536.947,154.917 541.5,160.5C 536.702,169.539 533.036,178.706 530.5,188C 529,190.167 527.5,192.333 526,194.5C 525.667,197.5 525.333,200.5 525,203.5C 520.012,205.503 519.012,208.837 522,213.5C 524.064,216.274 526.564,218.107 529.5,219C 530.739,216.76 532.572,215.26 535,214.5C 537.617,215.421 540.283,215.421 543,214.5C 547.356,215.179 551.023,217.179 554,220.5C 557.204,217.631 560.037,214.465 562.5,211C 566.167,210.333 569.833,210.333 573.5,211C 575.86,212.365 577.527,214.365 578.5,217C 580.087,217.862 581.754,218.529 583.5,219C 586.882,224.391 591.048,229.224 596,233.5C 596.742,236.553 597.909,239.387 599.5,242C 599.001,244.005 597.834,245.505 596,246.5C 594,245.167 592,245.167 590,246.5C 586.83,245.817 583.996,244.483 581.5,242.5C 578.107,243.872 574.773,244.205 571.5,243.5C 567.557,244.222 564.057,245.888 561,248.5C 556.171,245.178 553.671,246.511 553.5,252.5C 549.453,252.305 545.453,252.638 541.5,253.5C 538.764,251.005 536.264,248.338 534,245.5C 526.485,246.468 518.985,247.468 511.5,248.5C 509.812,246.971 508.479,245.137 507.5,243C 505.919,242.293 504.419,241.46 503,240.5C 502.872,237.486 502.872,234.486 503,231.5C 499.379,229.602 496.212,227.102 493.5,224C 486.503,220.953 479.336,219.453 472,219.5C 471.743,215.623 470.743,211.957 469,208.5C 469.854,199.469 467.688,191.302 462.5,184C 463.492,180.93 463.159,177.93 461.5,175C 462.757,169.732 465.923,168.232 471,170.5C 473.39,169.722 475.557,168.555 477.5,167C 478.314,164.373 479.647,162.04 481.5,160C 486.759,155.89 492.092,152.056 497.5,148.5 Z M 167.5,155.5 C 168.156,156.278 168.989,156.944 170,157.5C 173.028,156.007 175.528,156.674 177.5,159.5C 180.747,159.5 184.081,159.333 187.5,159C 188.687,160.019 189.687,161.186 190.5,162.5C 188.23,164.602 186.563,167.102 185.5,170C 187.869,176.421 192.536,179.421 199.5,179C 203.915,182.057 208.915,183.391 214.5,183C 217.303,184.78 219.303,183.946 220.5,180.5C 225.076,178.82 227.076,180.486 226.5,185.5C 226.276,188.444 225.61,191.277 224.5,194C 224.773,196.151 225.439,198.151 226.5,200C 221.132,203.098 215.632,205.598 210,207.5C 210.817,211.505 210.65,215.505 209.5,219.5C 210.978,219.238 212.311,219.571 213.5,220.5C 212.236,223.125 211.069,225.792 210,228.5C 208.237,229.944 206.237,230.944 204,231.5C 202.869,235.894 201.535,240.227 200,244.5C 197.328,244.111 194.661,244.777 192,246.5C 191.167,246.167 190.333,245.833 189.5,245.5C 188.294,242.921 186.961,240.421 185.5,238C 183.064,238.053 180.731,237.887 178.5,237.5C 177.608,234.716 176.442,232.05 175,229.5C 170.833,226.667 166.667,223.833 162.5,221C 154.385,218.247 146.218,216.414 138,215.5C 134.457,216.687 130.957,218.02 127.5,219.5C 124.656,216.315 122.656,212.649 121.5,208.5C 125.445,205.944 127.278,202.277 127,197.5C 129.662,193.244 133.495,190.578 138.5,189.5C 147.444,193.851 155.777,192.851 163.5,186.5C 164.095,182.068 165.095,177.735 166.5,173.5C 165.952,171.444 164.786,169.777 163,168.5C 162.333,165.5 162.333,162.5 163,159.5C 164.492,158.08 165.992,156.746 167.5,155.5 Z M 50.5,167.5 C 52.8728,166.706 55.2062,165.706 57.5,164.5C 57.7341,162.339 58.0675,160.172 58.5,158C 60.433,157.749 62.2663,157.249 64,156.5C 65.1087,160.719 66.7754,164.719 69,168.5C 72.1582,169.485 74.3249,171.485 75.5,174.5C 76.7362,175.246 78.0695,175.579 79.5,175.5C 79.9056,180.227 82.0723,183.894 86,186.5C 86.3095,187.766 86.8095,188.933 87.5,190C 82.9622,190.104 78.9622,191.604 75.5,194.5C 75.8076,195.308 76.3076,195.975 77,196.5C 77.3333,200.167 77.6667,203.833 78,207.5C 83.6601,217.213 87.3268,227.546 89,238.5C 91.7953,240.293 94.2953,242.46 96.5,245C 93.6335,245.029 91.1335,245.862 89,247.5C 87.3331,245.372 85.1664,244.039 82.5,243.5C 81.066,241.78 80.2326,239.78 80,237.5C 78.4878,236.743 77.1545,235.743 76,234.5C 73.5824,229.276 71.5824,223.943 70,218.5C 66.4079,218.074 64.9079,216.074 65.5,212.5C 63.5082,212.328 61.8415,212.995 60.5,214.5C 58.7866,213.122 57.4533,211.455 56.5,209.5C 53.8631,208.379 51.1965,208.379 48.5,209.5C 46.5119,207.839 44.1786,206.672 41.5,206C 39.3064,204.193 37.9731,201.86 37.5,199C 34.0791,197.525 30.7458,195.859 27.5,194C 28.5742,193.261 29.2409,192.261 29.5,191C 27.3744,189.508 25.3744,187.841 23.5,186C 26.4406,181.038 29.4406,176.038 32.5,171C 37.0373,170.787 41.3706,170.953 45.5,171.5C 47.7855,170.867 49.4522,169.534 50.5,167.5 Z M 349.5,163.5 C 350.239,163.369 350.906,163.536 351.5,164C 350.167,165 350.167,166 351.5,167C 354.501,169.753 357.501,169.919 360.5,167.5C 361.5,168 362.5,168.5 363.5,169C 364.148,171.847 364.481,174.681 364.5,177.5C 364,178.881 363,179.547 361.5,179.5C 359.761,178.6 357.928,177.933 356,177.5C 353.73,178.86 351.23,179.527 348.5,179.5C 349.307,174.069 349.641,168.736 349.5,163.5 Z M 459.5,171.5 C 461.154,176.428 461.987,181.428 462,186.5C 463.667,189.833 465.333,193.167 467,196.5C 465.967,202.225 466.801,207.725 469.5,213C 469.355,213.772 469.022,214.439 468.5,215C 461.568,215.264 458.235,218.764 458.5,225.5C 454.683,224.826 451.85,226.159 450,229.5C 449.382,234.586 447.715,239.253 445,243.5C 446.924,249.746 445.424,254.913 440.5,259C 438.711,259.52 437.044,259.187 435.5,258C 432.876,253.944 429.876,250.11 426.5,246.5C 425.311,245.571 423.978,245.238 422.5,245.5C 423.18,255.996 418.68,259.33 409,255.5C 407.815,253.13 406.649,250.797 405.5,248.5C 406.942,245.972 407.442,243.305 407,240.5C 405.169,237.923 402.836,235.923 400,234.5C 398.304,230.275 396.471,226.108 394.5,222C 395.367,218.895 395.701,215.728 395.5,212.5C 401.836,211.328 405.17,207.494 405.5,201C 405.004,192.834 402.171,185.668 397,179.5C 396.28,177.888 396.446,176.388 397.5,175C 407.277,174.457 416.777,175.957 426,179.5C 427.261,179.241 428.261,178.574 429,177.5C 431.917,179.393 435.084,179.893 438.5,179C 441.121,176.799 443.954,174.965 447,173.5C 447.561,174.022 448.228,174.355 449,174.5C 452.448,173.059 455.948,172.059 459.5,171.5 Z M 255.5,178.5 C 259.406,179.228 262.74,181.062 265.5,184C 267.769,184.758 269.936,184.591 272,183.5C 274.149,187.156 277.316,189.156 281.5,189.5C 281.186,196.996 284.353,202.329 291,205.5C 295.052,214.523 300.885,222.356 308.5,229C 305.651,230.727 302.651,230.894 299.5,229.5C 297.027,226.329 293.694,224.662 289.5,224.5C 289.297,226.39 289.963,227.89 291.5,229C 289.57,231.258 288.07,233.758 287,236.5C 286.261,235.426 285.261,234.759 284,234.5C 278.523,236.961 272.856,238.961 267,240.5C 263.158,239.932 259.325,239.265 255.5,238.5C 252.904,236.9 251.57,234.567 251.5,231.5C 248.117,231.257 244.951,231.924 242,233.5C 241.064,228.268 239.564,223.268 237.5,218.5C 234.446,219.196 231.78,220.696 229.5,223C 224.699,223.763 221.699,221.763 220.5,217C 217.695,216.558 215.028,217.058 212.5,218.5C 211.833,218.167 211.167,217.833 210.5,217.5C 211.788,214.966 211.788,212.466 210.5,210C 216.123,208.361 221.289,205.861 226,202.5C 227,202.833 228,203.167 229,203.5C 231.795,202.815 234.628,202.315 237.5,202C 238.09,200.491 238.756,198.991 239.5,197.5C 241.943,199.055 244.61,199.722 247.5,199.5C 247.5,198.5 247.5,197.5 247.5,196.5C 248.833,196.5 250.167,196.5 251.5,196.5C 251.523,194.4 250.856,192.567 249.5,191C 250.094,188.47 251.428,186.47 253.5,185C 253.241,183.739 252.574,182.739 251.5,182C 253.91,181.943 255.244,180.776 255.5,178.5 Z M 316.5,180.5 C 318.785,181.546 321.118,181.546 323.5,180.5C 323.853,182.635 323.02,183.968 321,184.5C 319.5,184 318,183.5 316.5,183C 315.402,182.23 315.402,181.397 316.5,180.5 Z M 391.5,180.5 C 395.147,180.622 397.981,182.288 400,185.5C 401.733,190.599 403.233,195.766 404.5,201C 402.442,207.726 397.942,211.56 391,212.5C 389.578,215.03 389.245,217.697 390,220.5C 393.887,225.779 397.387,231.279 400.5,237C 397.757,241.384 393.923,242.551 389,240.5C 384.572,240.761 382.405,243.094 382.5,247.5C 379.4,249.228 376.067,250.561 372.5,251.5C 369.907,251.418 367.907,250.252 366.5,248C 359.167,248.701 352.667,246.868 347,242.5C 343.646,243.83 341.146,246.163 339.5,249.5C 337.249,248.305 334.915,247.305 332.5,246.5C 330.684,247.815 329.017,249.315 327.5,251C 325.613,251.163 324.113,250.329 323,248.5C 322.731,245.648 321.897,242.982 320.5,240.5C 321.022,239.393 321.355,238.226 321.5,237C 319.221,233.412 317.888,229.412 317.5,225C 317.645,224.228 317.978,223.561 318.5,223C 321.764,221.53 325.097,220.363 328.5,219.5C 328.196,216.628 328.029,213.961 328,211.5C 326.301,210.594 324.467,210.261 322.5,210.5C 322.703,208.61 322.037,207.11 320.5,206C 323.651,202.865 325.317,199.032 325.5,194.5C 328.167,195.5 330.833,196.5 333.5,197.5C 336.167,196.167 338.833,194.833 341.5,193.5C 341.723,192.033 342.056,190.533 342.5,189C 345.002,187.568 347.502,187.402 350,188.5C 349.621,190.075 349.788,191.575 350.5,193C 353.825,192.47 356.825,193.47 359.5,196C 363.056,196.685 366.389,196.185 369.5,194.5C 373.641,195.848 377.474,195.181 381,192.5C 383.41,189.083 382.91,186.25 379.5,184C 382.07,180.833 384.903,180.667 388,183.5C 389.145,182.364 390.312,181.364 391.5,180.5 Z M 94.5,184.5 C 95.5,184.5 96.5,184.5 97.5,184.5C 97.3573,186.262 97.6906,187.929 98.5,189.5C 100.361,190.528 101.695,192.028 102.5,194C 105.769,193.801 109.103,194.301 112.5,195.5C 114.405,194.935 116.071,193.935 117.5,192.5C 119.667,194.926 122,197.259 124.5,199.5C 125.583,200.365 125.749,201.365 125,202.5C 120.079,205.855 119.079,210.188 122,215.5C 124.393,217.619 125.726,220.285 126,223.5C 128.397,226.4 131.23,228.733 134.5,230.5C 135.637,234.107 137.304,237.44 139.5,240.5C 136.538,242.655 133.538,244.821 130.5,247C 125.918,246.874 125.251,248.874 128.5,253C 125.83,257.168 123.83,261.668 122.5,266.5C 121.24,267.382 120.074,268.382 119,269.5C 119.517,275.473 119.35,281.473 118.5,287.5C 113.554,287.069 108.554,286.903 103.5,287C 99.2841,285.796 94.9508,285.13 90.5,285C 89.5787,283.244 88.412,283.077 87,284.5C 84.6634,283.192 82.1634,282.192 79.5,281.5C 78.5428,279.082 77.2095,276.916 75.5,275C 76.2489,273.266 76.7489,271.433 77,269.5C 79.2426,266.926 81.076,264.092 82.5,261C 81.8333,259.333 81.1667,257.667 80.5,256C 81.814,252.617 82.6473,249.117 83,245.5C 85.1052,246.311 87.1052,247.311 89,248.5C 89.9454,248.095 90.6121,247.428 91,246.5C 92.7161,246.411 94.5494,246.744 96.5,247.5C 97.5,247.167 98.1667,246.5 98.5,245.5C 96.1457,242.312 93.3124,239.645 90,237.5C 91.35,233.236 90.35,229.569 87,226.5C 85.3282,219.155 82.6615,212.155 79,205.5C 79.5071,201.472 79.3404,197.472 78.5,193.5C 82.0358,192.242 85.7025,191.409 89.5,191C 91.0544,188.713 92.7211,186.546 94.5,184.5 Z M 358.5,204.5 C 362.554,205.6 366.554,206.1 370.5,206C 371.924,209.729 374.591,212.063 378.5,213C 377.751,214.734 377.251,216.567 377,218.5C 374.761,219.869 372.927,219.369 371.5,217C 367.998,216.718 364.665,216.551 361.5,216.5C 359.314,212.795 358.314,208.795 358.5,204.5 Z M 393.5,212.5 C 394.932,215.267 394.599,217.934 392.5,220.5C 391.585,219.672 390.919,218.672 390.5,217.5C 391.26,215.64 392.26,213.973 393.5,212.5 Z M 136.5,216.5 C 139.835,218 143.335,219 147,219.5C 148.436,219.441 149.769,219.108 151,218.5C 152.831,222.043 155.498,223.043 159,221.5C 163.99,224.484 168.99,227.484 174,230.5C 175.858,233.572 177.024,236.905 177.5,240.5C 180.127,239.908 182.794,239.575 185.5,239.5C 185.703,242.907 187.203,245.574 190,247.5C 193.224,247.718 196.391,247.718 199.5,247.5C 200.05,254.611 203.55,259.611 210,262.5C 215.594,270.627 215.927,278.96 211,287.5C 210.667,291.5 210.333,295.5 210,299.5C 205.676,303.1 204.51,307.6 206.5,313C 205.999,319.794 204.666,326.46 202.5,333C 203.479,336.804 203.645,340.638 203,344.5C 195.209,342.017 187.375,342.017 179.5,344.5C 177.313,339.804 174.147,335.804 170,332.5C 168.112,326.392 165.945,320.392 163.5,314.5C 162.372,313.738 161.205,313.071 160,312.5C 159.982,310.203 160.149,307.869 160.5,305.5C 157.08,306.811 153.747,306.644 150.5,305C 146.608,302.563 142.942,299.896 139.5,297C 137.833,296.667 136.167,296.333 134.5,296C 131.301,290.065 126.301,287.232 119.5,287.5C 119.912,281.478 120.579,275.478 121.5,269.5C 122.478,269.023 123.311,268.357 124,267.5C 124.923,262.896 126.59,258.563 129,254.5C 129.651,252.765 129.485,251.098 128.5,249.5C 131.957,247.873 135.29,246.04 138.5,244C 139.804,243.196 140.471,242.029 140.5,240.5C 138.522,237.074 137.022,233.407 136,229.5C 132.51,227.009 129.343,224.175 126.5,221C 130.525,220.817 133.858,219.317 136.5,216.5 Z M 466.5,216.5 C 467.833,216.5 469.167,216.5 470.5,216.5C 469.948,218.331 469.948,219.997 470.5,221.5C 471.941,220.696 473.441,220.029 475,219.5C 480.042,221.386 485.209,222.886 490.5,224C 493.692,226.692 497.025,229.192 500.5,231.5C 501.324,234.785 501.824,238.118 502,241.5C 505.689,243.855 508.689,246.855 511,250.5C 518.668,248.348 526.502,247.515 534.5,248C 536.167,250.333 537.833,252.667 539.5,255C 537.667,257.5 535.833,260 534,262.5C 533.667,264.5 533.333,266.5 533,268.5C 529.281,270.21 526.114,272.71 523.5,276C 519.327,276.979 515.161,277.812 511,278.5C 508.406,276.195 505.573,275.862 502.5,277.5C 502.657,278.873 502.49,280.207 502,281.5C 497.568,286.607 492.568,290.94 487,294.5C 481.104,293.385 475.27,291.885 469.5,290C 467.085,285.872 463.419,284.372 458.5,285.5C 455.645,277.129 453.478,268.463 452,259.5C 449.594,258.435 447.427,257.102 445.5,255.5C 446.71,252.859 446.71,250.193 445.5,247.5C 448.41,242.195 450.244,236.529 451,230.5C 453.288,226.57 456.455,225.57 460.5,227.5C 460.187,224.753 460.52,222.086 461.5,219.5C 463.396,218.725 465.063,217.725 466.5,216.5 Z M 218.5,217.5 C 219.782,219.866 221.449,222.033 223.5,224C 228.343,225.214 232.51,224.047 236,220.5C 236.26,222.618 237.26,224.284 239,225.5C 239.498,228.482 239.665,231.482 239.5,234.5C 242.667,234.6 245.667,233.933 248.5,232.5C 250.115,235.45 252.115,238.116 254.5,240.5C 257.625,240.751 260.792,240.751 264,240.5C 266.991,243.49 269.157,246.99 270.5,251C 268.279,252.669 267.945,254.669 269.5,257C 268.503,258.596 267.337,260.096 266,261.5C 265.936,268.417 264.77,275.084 262.5,281.5C 262.478,283.965 262.978,286.298 264,288.5C 266.365,289.289 268.532,290.456 270.5,292C 269.903,293.062 269.57,294.228 269.5,295.5C 270.677,300.543 272.011,305.543 273.5,310.5C 269.125,315.851 263.458,318.184 256.5,317.5C 253.833,317.333 251.167,317.167 248.5,317C 245.833,314.333 243.167,311.667 240.5,309C 238.087,308.516 235.754,308.85 233.5,310C 232.892,311.231 232.559,312.564 232.5,314C 233.046,324.721 234.046,335.388 235.5,346C 234.991,347.169 234.158,348.002 233,348.5C 223.601,346.72 214.101,345.387 204.5,344.5C 204.531,333.906 205.531,323.406 207.5,313C 207.213,310.826 206.88,308.659 206.5,306.5C 207.303,304.005 208.803,302.005 211,300.5C 212.396,297.517 212.563,294.517 211.5,291.5C 216.85,283.256 217.683,274.589 214,265.5C 209.849,261.737 205.849,257.737 202,253.5C 201.156,246.187 202.323,239.187 205.5,232.5C 207.341,231.77 209.175,231.103 211,230.5C 212.187,226.737 213.52,223.07 215,219.5C 216.302,218.915 217.469,218.249 218.5,217.5 Z M 291.5,227.5 C 292.251,226.427 293.251,226.26 294.5,227C 296.644,228.146 298.477,229.646 300,231.5C 301.301,231.96 302.634,232.294 304,232.5C 307.954,231.223 311.954,230.223 316,229.5C 316.726,232.621 318.226,235.287 320.5,237.5C 319.833,238.5 319.167,239.5 318.5,240.5C 320.393,243.618 321.727,246.952 322.5,250.5C 323.308,250.808 323.975,251.308 324.5,252C 323.671,253.816 322.837,255.649 322,257.5C 320.491,258.09 318.991,258.756 317.5,259.5C 316.77,262.109 316.27,264.776 316,267.5C 313.384,268.653 310.718,269.653 308,270.5C 306.86,274.389 307.693,277.722 310.5,280.5C 309.026,285.981 305.692,289.981 300.5,292.5C 298.651,296.198 296.818,299.864 295,303.5C 294.405,304.899 294.572,306.232 295.5,307.5C 288.432,308.17 281.432,309.17 274.5,310.5C 273.637,305.383 272.304,300.383 270.5,295.5C 271.485,293.902 271.651,292.235 271,290.5C 269.247,289.373 267.413,288.373 265.5,287.5C 264.368,285.306 263.701,282.973 263.5,280.5C 265.515,276.616 266.848,272.449 267.5,268C 265.758,264.798 266.425,262.298 269.5,260.5C 270.769,258.305 270.769,256.139 269.5,254C 272.069,249.333 271.069,245.333 266.5,242C 272.893,241.258 278.726,239.091 284,235.5C 284.589,237.863 286.089,238.863 288.5,238.5C 289.143,235.047 290.476,231.881 292.5,229C 292.43,228.235 292.097,227.735 291.5,227.5 Z M 401.5,237.5 C 402.731,239.994 404.065,241.827 405.5,243C 403.957,245.33 403.457,247.83 404,250.5C 405.833,253 407.667,255.5 409.5,258C 419.522,260.29 424.355,256.457 424,246.5C 427.55,250.383 430.717,254.549 433.5,259C 437.838,262.557 441.671,262.057 445,257.5C 447.172,258.585 449.172,259.919 451,261.5C 452.98,266.277 453.98,271.277 454,276.5C 455.185,278.87 456.351,281.203 457.5,283.5C 456.678,285.687 455.178,287.353 453,288.5C 450.607,293.574 448.44,298.741 446.5,304C 448.856,309.729 452.189,314.729 456.5,319C 454.514,320.747 452.514,322.58 450.5,324.5C 447.288,326.198 443.954,327.698 440.5,329C 436.644,333.355 432.977,337.855 429.5,342.5C 427.664,343.919 425.664,345.086 423.5,346C 419.456,346.856 415.789,348.522 412.5,351C 409.571,351.777 406.737,351.61 404,350.5C 403,351.167 402,351.833 401,352.5C 397.384,351.762 393.718,351.096 390,350.5C 389.228,350.645 388.561,350.978 388,351.5C 388.696,335.307 386.53,319.474 381.5,304C 382.816,300.786 383.816,297.453 384.5,294C 387.529,293.461 390.529,292.794 393.5,292C 394.509,289.828 396.176,288.662 398.5,288.5C 396.56,280.894 396.227,273.227 397.5,265.5C 397.167,263.167 396.167,262.833 394.5,264.5C 393.808,263.975 393.308,263.308 393,262.5C 392.667,258.833 392.333,255.167 392,251.5C 388.68,249.825 388.18,247.825 390.5,245.5C 389.092,244.757 387.759,243.923 386.5,243C 389.429,242.223 392.263,242.39 395,243.5C 398.214,242.502 400.381,240.502 401.5,237.5 Z M 384.5,243.5 C 385.534,244.687 386.867,245.52 388.5,246C 387.978,246.561 387.645,247.228 387.5,248C 388.651,249.823 389.818,251.656 391,253.5C 391.333,257.167 391.667,260.833 392,264.5C 393.011,265.337 394.178,265.67 395.5,265.5C 395.281,272.849 395.281,280.183 395.5,287.5C 394.155,288.347 393.155,289.513 392.5,291C 389.173,291.61 385.839,292.11 382.5,292.5C 383.695,297.429 381.862,300.429 377,301.5C 375.274,300.424 373.441,300.257 371.5,301C 366.227,302.422 361.227,304.422 356.5,307C 353.084,307.893 349.917,307.393 347,305.5C 345.942,301.717 344.109,298.383 341.5,295.5C 334.163,294.475 326.83,293.309 319.5,292C 317.66,289.174 316.994,286.007 317.5,282.5C 315.5,282.5 313.5,282.5 311.5,282.5C 311.66,280.801 311.494,279.134 311,277.5C 307.985,275.484 307.818,273.317 310.5,271C 313.007,270.907 315.174,270.074 317,268.5C 317.696,265.522 318.196,262.522 318.5,259.5C 322.251,259.918 324.418,258.251 325,254.5C 327.662,252.506 330.329,250.506 333,248.5C 335.453,249.827 337.953,250.661 340.5,251C 341.982,248.52 343.815,246.353 346,244.5C 351.953,247.971 358.453,249.471 365.5,249C 368.785,252.379 372.785,253.379 377.5,252C 379.156,250.171 381.156,248.837 383.5,248C 384.38,246.644 384.714,245.144 384.5,243.5 Z M 310.5,284.5 C 312.5,284.5 314.5,284.5 316.5,284.5C 316.223,287.448 316.556,290.281 317.5,293C 324.782,294.493 332.115,295.659 339.5,296.5C 342.613,299.133 344.78,302.467 346,306.5C 347.552,307.966 349.386,308.966 351.5,309.5C 359.106,307.288 366.606,304.621 374,301.5C 376,302.833 378,302.833 380,301.5C 380.353,302.672 380.187,303.838 379.5,305C 381.726,309.678 383.559,314.511 385,319.5C 386.099,330.14 386.599,340.806 386.5,351.5C 367.173,352.997 349.507,359.164 333.5,370C 330.518,370.498 327.518,370.665 324.5,370.5C 324.5,368.833 324.5,367.167 324.5,365.5C 319.151,366.207 313.818,366.707 308.5,367C 299.471,361.988 289.805,358.655 279.5,357C 277.5,353.667 274.833,351 271.5,349C 262.259,348.432 253.092,347.265 244,345.5C 241.502,345.917 239.002,346.251 236.5,346.5C 234.544,334.653 234.21,322.82 235.5,311C 236.766,310.691 237.933,310.191 239,309.5C 241.853,312.052 244.353,314.885 246.5,318C 253.167,318.667 259.833,318.667 266.5,318C 275.681,310.853 286.014,308.353 297.5,310.5C 297.38,308.801 297.046,307.135 296.5,305.5C 297.997,301.838 299.497,298.172 301,294.5C 303.449,292.268 306.116,290.268 309,288.5C 309.791,287.255 310.291,285.922 310.5,284.5 Z"/></g>
<g><path style="opacity:0.364" fill="#000000" d="M 351.5,159.5 C 352.649,159.791 353.316,160.624 353.5,162C 352.002,165.214 353.168,167.047 357,167.5C 359.891,165.001 362.558,165.335 365,168.5C 365.499,172.486 365.666,176.486 365.5,180.5C 361.972,181.833 358.805,181.167 356,178.5C 353.138,181.284 349.971,181.95 346.5,180.5C 346.938,176.928 347.604,173.428 348.5,170C 347.74,168.559 347.074,167.059 346.5,165.5C 348.19,163.481 349.856,161.481 351.5,159.5 Z M 349.5,163.5 C 349.641,168.736 349.307,174.069 348.5,179.5C 351.23,179.527 353.73,178.86 356,177.5C 357.928,177.933 359.761,178.6 361.5,179.5C 363,179.547 364,178.881 364.5,177.5C 364.481,174.681 364.148,171.847 363.5,169C 362.5,168.5 361.5,168 360.5,167.5C 357.501,169.919 354.501,169.753 351.5,167C 350.167,166 350.167,165 351.5,164C 350.906,163.536 350.239,163.369 349.5,163.5 Z"/></g>
<g><path style="opacity:0.365" fill="#000000" d="M 356.5,202.5 C 361.578,203.726 366.578,204.392 371.5,204.5C 372.892,208.06 375.392,210.393 379,211.5C 379.044,214.475 378.877,217.475 378.5,220.5C 374.56,220.93 371.06,219.93 368,217.5C 364.707,219.115 361.707,218.781 359,216.5C 357.971,211.856 357.138,207.19 356.5,202.5 Z M 358.5,204.5 C 358.314,208.795 359.314,212.795 361.5,216.5C 364.665,216.551 367.998,216.718 371.5,217C 372.927,219.369 374.761,219.869 377,218.5C 377.251,216.567 377.751,214.734 378.5,213C 374.591,212.063 371.924,209.729 370.5,206C 366.554,206.1 362.554,205.6 358.5,204.5 Z"/></g>
<g><path style="opacity:0.445" fill="#000000" d="M 533.5,441.5 C 539.643,442.026 540.976,444.86 537.5,450C 532.504,450.664 530.67,448.498 532,443.5C 532.717,442.956 533.217,442.289 533.5,441.5 Z M 535.5,444.5 C 536.397,445.598 537.23,445.598 538,444.5C 538.667,445.5 538.667,446.5 538,447.5C 536.933,446.809 535.766,446.309 534.5,446C 535.056,445.617 535.389,445.117 535.5,444.5 Z"/></g>
<g><path style="opacity:0.51" fill="#000000" d="M 549.5,444.5 C 546.506,452.467 544.172,451.967 542.5,443C 542.833,442.5 543.167,442 543.5,441.5C 544.624,443.369 545.457,445.369 546,447.5C 546.543,445.369 547.376,443.369 548.5,441.5C 549.386,442.325 549.719,443.325 549.5,444.5 Z"/></g>
<g><path style="opacity:0.452" fill="#000000" d="M 549.5,444.5 C 552.121,442.874 553.954,443.541 555,446.5C 555.483,445.552 555.649,444.552 555.5,443.5C 559.599,443.858 563.599,443.858 567.5,443.5C 568.647,443.818 569.481,444.484 570,445.5C 570.674,444.422 571.674,443.755 573,443.5C 575.783,444.383 578.616,444.383 581.5,443.5C 581.022,446.278 582.022,448.278 584.5,449.5C 584.167,449.833 583.833,450.167 583.5,450.5C 581.264,450.583 578.93,450.25 576.5,449.5C 574.547,450.024 572.88,451.024 571.5,452.5C 569.011,450.408 566.344,449.742 563.5,450.5C 562.167,443.833 560.833,443.833 559.5,450.5C 558.702,448.922 558.202,447.256 558,445.5C 557.798,447.256 557.298,448.922 556.5,450.5C 555.614,449.675 555.281,448.675 555.5,447.5C 550.959,447.331 550.626,447.998 554.5,449.5C 550.072,451.052 548.405,449.386 549.5,444.5 Z M 572.5,445.5 C 574.465,445.948 574.798,446.948 573.5,448.5C 572.614,447.675 572.281,446.675 572.5,445.5 Z"/></g>
<g><path style="opacity:0.491" fill="#000000" d="M 586.5,443.5 C 588.39,443.297 589.89,443.963 591,445.5C 595.656,442.471 597.323,443.804 596,449.5C 594.062,450.86 592.396,450.527 591,448.5C 589.867,450.211 588.367,450.711 586.5,450C 585.232,447.837 585.232,445.67 586.5,443.5 Z M 587.5,445.5 C 590.595,446.119 590.929,447.119 588.5,448.5C 586.481,447.867 586.147,446.867 587.5,445.5 Z M 592.5,445.5 C 595.674,445.952 596.007,446.952 593.5,448.5C 592.614,447.675 592.281,446.675 592.5,445.5 Z"/></g>
<g><path style="opacity:0.449" fill="#000000" d="M 597.5,443.5 C 600.187,443.336 602.854,443.503 605.5,444C 606.769,446.139 606.769,448.305 605.5,450.5C 604.167,443.833 602.833,443.833 601.5,450.5C 600.702,448.922 600.202,447.256 600,445.5C 599.798,447.256 599.298,448.922 598.5,450.5C 597.526,448.257 597.192,445.924 597.5,443.5 Z"/></g>
</svg>
